<mxfile host="app.diagrams.net" modified="2022-04-28T08:17:22.937Z" agent="5.0 (Windows NT 10.0; Win64; x64) AppleWebKit/537.36 (KHTML, like Gecko) Chrome/100.0.4896.127 Safari/537.36" etag="Zfmjynesqk2ZaWWGs71i" version="17.4.6" type="github">
  <diagram id="kcvsIPe3xYXkVIFcAQJa" name="Page-1">
    <mxGraphModel dx="1038" dy="579" grid="1" gridSize="10" guides="1" tooltips="1" connect="1" arrows="1" fold="1" page="1" pageScale="1" pageWidth="827" pageHeight="1169" math="0" shadow="0">
      <root>
        <mxCell id="0" />
        <mxCell id="1" parent="0" />
        <mxCell id="QCqwP3Htz6-DfP1OXaIB-4" value="" style="rounded=0;whiteSpace=wrap;html=1;" parent="1" vertex="1">
          <mxGeometry x="100" y="30" width="580" height="430" as="geometry" />
        </mxCell>
        <mxCell id="QCqwP3Htz6-DfP1OXaIB-1" value="hadoop100-log" style="rounded=1;whiteSpace=wrap;html=1;fillColor=#ffe6cc;strokeColor=#d79b00;" parent="1" vertex="1">
          <mxGeometry x="140" y="400" width="120" height="60" as="geometry" />
        </mxCell>
        <mxCell id="QCqwP3Htz6-DfP1OXaIB-2" value="hadoop101-log" style="rounded=1;whiteSpace=wrap;html=1;fillColor=#ffe6cc;strokeColor=#d79b00;" parent="1" vertex="1">
          <mxGeometry x="330" y="400" width="120" height="60" as="geometry" />
        </mxCell>
        <mxCell id="QCqwP3Htz6-DfP1OXaIB-3" value="hadoop102-log" style="rounded=1;whiteSpace=wrap;html=1;fillColor=#ffe6cc;strokeColor=#d79b00;" parent="1" vertex="1">
          <mxGeometry x="520" y="400" width="120" height="60" as="geometry" />
        </mxCell>
        <mxCell id="8Y7kid4Wf00FCMn_x53K-8" value="" style="rounded=0;whiteSpace=wrap;html=1;fillColor=#dae8fc;strokeColor=#6c8ebf;" vertex="1" parent="1">
          <mxGeometry x="230" y="190" width="300" height="120" as="geometry" />
        </mxCell>
        <mxCell id="8Y7kid4Wf00FCMn_x53K-1" value="" style="endArrow=classic;html=1;rounded=0;exitX=0.5;exitY=0;exitDx=0;exitDy=0;" edge="1" parent="1" source="QCqwP3Htz6-DfP1OXaIB-1" target="8Y7kid4Wf00FCMn_x53K-7">
          <mxGeometry width="50" height="50" relative="1" as="geometry">
            <mxPoint x="220" y="360" as="sourcePoint" />
            <mxPoint x="360" y="277.9797979797979" as="targetPoint" />
          </mxGeometry>
        </mxCell>
        <mxCell id="8Y7kid4Wf00FCMn_x53K-2" value="" style="endArrow=classic;html=1;rounded=0;exitX=0.5;exitY=0;exitDx=0;exitDy=0;" edge="1" parent="1" target="8Y7kid4Wf00FCMn_x53K-7">
          <mxGeometry width="50" height="50" relative="1" as="geometry">
            <mxPoint x="379" y="400" as="sourcePoint" />
            <mxPoint x="393.0953165052281" y="287.97932672160914" as="targetPoint" />
          </mxGeometry>
        </mxCell>
        <mxCell id="8Y7kid4Wf00FCMn_x53K-3" value="" style="endArrow=classic;html=1;rounded=0;exitX=0.5;exitY=0;exitDx=0;exitDy=0;" edge="1" parent="1" source="QCqwP3Htz6-DfP1OXaIB-3" target="8Y7kid4Wf00FCMn_x53K-7">
          <mxGeometry width="50" height="50" relative="1" as="geometry">
            <mxPoint x="570" y="400" as="sourcePoint" />
            <mxPoint x="436" y="280.5274725274726" as="targetPoint" />
          </mxGeometry>
        </mxCell>
        <mxCell id="8Y7kid4Wf00FCMn_x53K-7" value="HDFS cluster" style="sketch=0;outlineConnect=0;fontColor=#232F3E;gradientColor=none;strokeColor=#232F3E;fillColor=#ffffff;dashed=0;verticalLabelPosition=bottom;verticalAlign=top;align=center;html=1;fontSize=12;fontStyle=0;aspect=fixed;shape=mxgraph.aws4.resourceIcon;resIcon=mxgraph.aws4.hdfs_cluster;" vertex="1" parent="1">
          <mxGeometry x="350" y="230" width="60" height="60" as="geometry" />
        </mxCell>
        <mxCell id="8Y7kid4Wf00FCMn_x53K-9" value="将所有集群的日志全部聚合在hdfs中存储" style="text;html=1;strokeColor=none;fillColor=none;align=center;verticalAlign=middle;whiteSpace=wrap;rounded=0;" vertex="1" parent="1">
          <mxGeometry x="270" y="200" width="220" height="30" as="geometry" />
        </mxCell>
        <mxCell id="8Y7kid4Wf00FCMn_x53K-10" value="" style="endArrow=classic;html=1;rounded=0;exitX=0.5;exitY=0;exitDx=0;exitDy=0;entryX=0.482;entryY=1.002;entryDx=0;entryDy=0;entryPerimeter=0;" edge="1" parent="1" source="8Y7kid4Wf00FCMn_x53K-8" target="8Y7kid4Wf00FCMn_x53K-11">
          <mxGeometry width="50" height="50" relative="1" as="geometry">
            <mxPoint x="350" y="190" as="sourcePoint" />
            <mxPoint x="380" y="120" as="targetPoint" />
          </mxGeometry>
        </mxCell>
        <mxCell id="8Y7kid4Wf00FCMn_x53K-11" value="用户直接访问hdfs日志即可获取到集群之间的日志相关信息" style="rounded=1;whiteSpace=wrap;html=1;fillColor=#d5e8d4;strokeColor=#82b366;" vertex="1" parent="1">
          <mxGeometry x="100" y="30" width="580" height="80" as="geometry" />
        </mxCell>
      </root>
    </mxGraphModel>
  </diagram>
</mxfile>
